<?xml version="1.0" encoding="utf-8"?>
<!-- Generator: Adobe Illustrator 16.0.0, SVG Export Plug-In . SVG Version: 6.00 Build 0)  -->
<!DOCTYPE svg PUBLIC "-//W3C//DTD SVG 1.1//EN" "http://www.w3.org/Graphics/SVG/1.1/DTD/svg11.dtd">
<svg version="1.1" id="Lager_1" xmlns="http://www.w3.org/2000/svg" xmlns:xlink="http://www.w3.org/1999/xlink" x="0px" y="0px"
	 width="538px" height="132px" viewBox="0 0 538 132" enable-background="new 0 0 538 132" xml:space="preserve">
<path fill-rule="evenodd" clip-rule="evenodd" fill="#FFFFFF" d="M491.194,63.7c0,7.716,4.455,13.972,9.951,13.972
	c5.497,0,9.952-6.256,9.952-13.972s-4.455-13.971-9.952-13.971C495.649,49.729,491.194,55.984,491.194,63.7L491.194,63.7z
	 M501.32,37.03c15.428,0,24.212,11.326,24.212,26.803c0,14.723-8.858,26.501-24.212,26.501s-24.211-11.778-24.211-26.501
	C477.109,48.356,485.893,37.03,501.32,37.03L501.32,37.03z"/>
<path fill="#FFFFFF" d="M428.938,44.078c2.968,3.937,3.096,9.65,3.096,9.65h-15.533c-0.69-2.461-1.984-3.752-4.075-4.289
	c-2.305-0.322-5.093-0.429-7.076,0.643c-1.34,0.965-1.587,3.014-0.676,4.354c8.038,5.564,30.107,2.508,27.48,20.52
	c-0.482,4.021-1.468,7.363-5.36,10.508c-8.202,5.361-21.123,6.381-30.236,2.359c-5.897-2.627-9.918-8.869-9.65-15.41
	c0,0,10.455,0.023,15.654-0.029c0.568,2.375,1.341,4.664,3.86,5.361c2.734,0.695,6.272,0.695,8.578-0.859
	c1.34-1.232,1.461-3.021,0.567-4.973c-3.74-3.738-15.686-3.229-22.44-8.107c-4.45-3.538-5.736-9.328-4.718-14.796
	c1.179-5.575,6.862-9.864,12.223-10.936C410.442,36.519,421.915,36.305,428.938,44.078L428.938,44.078z"/>
<polygon fill="#FFFFFF" points="385.713,49.925 358.786,49.925 358.756,57.46 379.709,57.49 379.709,69.684 358.571,69.684 
	358.634,76.576 385.713,76.545 385.713,89.383 343.04,89.383 343.04,37.705 385.713,37.705 385.713,49.925 "/>
<path fill="#FFFFFF" d="M450.412,37.7l-0.062,13.113L463.435,37.7h19.883l-19.703,21.137l17.248,30.606
	c0,0-17.142-0.109-17.154-0.063c0.013-0.127-10.508-19.582-10.508-19.582l-2.83,2.801l0.042,16.781h-15.439V37.7H450.412
	L450.412,37.7z"/>
<path fill-rule="evenodd" clip-rule="evenodd" fill="#FFFFFF" d="M318.678,49.823l-11.055-0.03v7.874l10.935,0.045
	c0,0,3.495-0.325,3.433-3.997C322.134,50.071,318.677,49.794,318.678,49.823L318.678,49.823z M318.678,69.496l-11.055-0.031v7.875
	l10.935,0.043c0,0,3.495-0.324,3.433-3.996C322.134,69.742,318.677,69.467,318.678,69.496L318.678,69.496z M333.807,40.607
	c3.983,4.064,4.039,6.727,4.308,11.712c-0.054,4.021-2.031,7.554-4.796,10.236c3.09,3.414,5.121,6.91,5.225,11.851
	c0.222,4.082-0.858,7.773-3.646,10.723c-3.538,2.947-7.881,4.205-12.652,4.258h-30.236V37.737l31.255-0.003
	C323.264,37.734,330.718,37.843,333.807,40.607L333.807,40.607z"/>
<path fill-rule="evenodd" clip-rule="evenodd" fill="#FFFFFF" d="M269.115,50.516l-11.056-0.03l0.029,7.912l10.905,0.007
	c0,0,3.496-0.325,3.433-3.997C272.571,50.763,269.114,50.487,269.115,50.516L269.115,50.516z M280.985,39.474
	c6.594,3.431,7.647,10.767,7.352,17.125c-0.43,5.736-3.187,11.741-8.977,14.153c0.006-0.025,10.655,18.59,10.661,18.596h-17.155
	l-11.365-18.26l-3.615-0.029l-0.03,18.32h-15.44V37.698l19.393-0.009C261.809,37.689,277.09,37.235,280.985,39.474L280.985,39.474z"
	/>
<path fill-rule="evenodd" clip-rule="evenodd" fill="#FFFFFF" d="M215.418,68.188h5.822v-8.61L215.418,68.188L215.418,68.188z
	 M236.217,89.387h-14.947V79.43L207.725,79.4l-6.828,9.986h-17.432c-0.001-0.199,35.604-51.738,35.597-51.681h17.155V89.387
	L236.217,89.387z"/>
<polygon fill="#FFFFFF" points="237.542,119.965 244.405,108.486 244.45,108.486 244.654,119.607 246.821,119.607 246.16,102.057 
	238.276,115.32 234.593,102.057 228.375,119.607 230.541,119.607 234.267,108.486 234.312,108.486 237.542,119.965 "/>
<path fill-rule="evenodd" clip-rule="evenodd" fill="#FFFFFF" d="M261.701,115.387l1.252,4.221h2.255l-5.261-17.551l-10.818,17.551
	h2.255l2.589-4.221H261.701L261.701,115.387z M261.134,113.467h-5.985l4.07-6.811L261.134,113.467L261.134,113.467z"/>
<polygon fill="#FFFFFF" points="272.45,110.072 273.606,102.77 271.507,102.77 268.842,119.607 270.941,119.607 272.055,112.574 
	273.03,111.77 278.132,119.607 280.968,119.607 274.73,110.34 283.499,102.77 280.752,102.77 272.45,110.072 "/>
<polygon fill="#FFFFFF" points="284.462,119.607 293.507,119.607 293.811,117.688 286.865,117.688 287.873,111.322 294.617,111.322 
	294.921,109.402 288.177,109.402 288.923,104.691 295.868,104.691 296.172,102.77 287.128,102.77 284.462,119.607 "/>
<path fill="#FFFFFF" d="M309.799,104.959c-0.657-1.631-2.053-2.547-3.929-2.547c-2.546,0-5.216,1.631-5.646,4.355
	c-0.372,2.344,1.197,3.439,2.986,4.266l1.084,0.49c1.355,0.604,2.684,1.385,2.397,3.193c-0.279,1.766-1.815,3.283-3.624,3.283
	s-3.07-1.34-2.755-3.193l-2.192,0.447c-0.07,2.701,1.733,4.711,4.458,4.711c3.015,0,5.728-2.188,6.212-5.248
	c0.445-2.813-1.132-4.131-3.373-5.068l-1.132-0.469c-0.986-0.402-2.172-1.094-1.963-2.412c0.233-1.475,1.852-2.389,3.192-2.389
	c1.272,0,1.991,0.535,2.45,1.584L309.799,104.959L309.799,104.959z"/>
<path fill-rule="evenodd" clip-rule="evenodd" fill="#FFFFFF" d="M331.113,115.387l1.252,4.221h2.256l-5.261-17.551l-10.817,17.551
	h2.255l2.589-4.221H331.113L331.113,115.387z M330.546,113.467h-5.984l4.07-6.811L330.546,113.467L330.546,113.467z"/>
<path fill-rule="evenodd" clip-rule="evenodd" fill="#FFFFFF" d="M345.862,119.607h3.416c5.314,0,9.951-2.768,10.86-8.508
	c0.887-5.605-2.97-8.33-8.128-8.33h-3.483L345.862,119.607L345.862,119.607z M350.322,104.691h0.737
	c4.287,0,7.743,1.584,6.966,6.498c-0.774,4.891-4.736,6.498-9.023,6.498h-0.737L350.322,104.691L350.322,104.691z"/>
<polygon fill="#FFFFFF" points="367.813,102.77 365.714,102.77 363.048,119.607 365.147,119.607 367.813,102.77 "/>
<polygon fill="#FFFFFF" points="381.013,104.691 381.316,102.77 373.166,102.77 370.501,119.607 372.6,119.607 373.907,111.346 
	379.759,111.346 380.063,109.426 374.212,109.426 374.961,104.691 381.013,104.691 "/>
<polygon fill="#FFFFFF" points="393.821,104.691 394.125,102.77 385.975,102.77 383.309,119.607 385.407,119.607 386.716,111.346 
	392.566,111.346 392.87,109.426 387.02,109.426 387.769,104.691 393.821,104.691 "/>
<polygon fill="#FFFFFF" points="395.47,119.607 404.514,119.607 404.817,117.688 397.872,117.688 398.88,111.322 405.624,111.322 
	405.928,109.402 399.184,109.402 399.93,104.691 406.875,104.691 407.179,102.77 398.135,102.77 395.47,119.607 "/>
<path fill-rule="evenodd" clip-rule="evenodd" fill="#FFFFFF" d="M415.649,112.283c2.479-0.291,4.406-2.301,4.788-4.711
	c0.254-1.609-0.299-3.193-1.575-4.02c-1.22-0.76-2.823-0.783-4.32-0.783h-2.545l-2.666,16.838h2.1l1.128-7.123h0.87l3.83,7.123
	h2.546L415.649,112.283L415.649,112.283z M413.799,104.646h0.559c2.076,0,4.518,0.379,4.101,3.014
	c-0.425,2.68-2.811,3.082-4.954,3.082h-0.67L413.799,104.646L413.799,104.646z"/>
<polygon fill="#FFFFFF" points="423.688,119.607 432.731,119.607 433.035,117.688 426.091,117.688 427.098,111.322 433.842,111.322 
	434.146,109.402 427.401,109.402 428.147,104.691 435.093,104.691 435.396,102.77 426.353,102.77 423.688,119.607 "/>
<polygon fill="#FFFFFF" points="437.349,119.607 439.447,119.607 441.435,107.059 451.978,120.301 454.752,102.77 452.653,102.77 
	450.684,115.209 440.141,101.967 437.349,119.607 "/>
<path fill="#FFFFFF" d="M471.438,103.553c-1.149-0.783-2.589-1.141-4.063-1.141c-4.957,0-9.569,3.887-10.357,8.867
	c-0.771,4.867,2.6,8.686,7.4,8.686c1.475,0,3.194-0.424,4.609-1.184l0.393-2.479c-1.428,1.117-3.112,1.742-4.765,1.742
	c-3.751,0-6.111-3.148-5.528-6.834c0.59-3.729,3.97-6.877,7.743-6.877c1.586,0,3.146,0.58,4.183,1.652L471.438,103.553
	L471.438,103.553z"/>
<polygon fill="#FFFFFF" points="472.953,119.607 481.997,119.607 482.302,117.688 475.356,117.688 476.364,111.322 483.107,111.322 
	483.411,109.402 476.668,109.402 477.414,104.691 484.358,104.691 484.663,102.77 475.618,102.77 472.953,119.607 "/>
<path fill="#FFDD00" d="M37.878,46.522c-0.151,0.287-0.291,0.567-0.426,0.812c-0.779,1.513-1.575,3.009-2.463,4.459
	c0,1.091-0.655,1.902-1.278,2.729c-0.156,1.076-1.278,1.762-1.497,2.806c-0.749,0.577-0.982,1.216-1.497,1.902
	c0.141,0.312-0.218,0.187-0.327,0.265c-0.374,0.343-0.826,0.779-0.717,1.31c-0.483,0.093-0.405,0.686-0.779,0.857l0.14,0.125
	c-1.73,3.134-3.258,6.376-4.786,9.604c-0.094,0.17-0.25,0.17-0.375,0.078v0.047c-0.296-0.109-0.499,0.154-0.717,0.373
	c-0.156,0.188-0.218,0.438-0.296,0.67c-1.123,0.75-2.526,0.826-3.508,1.902c-0.359-0.156-0.374,0.281-0.686,0.344
	c-0.515,0.326-0.982,0.779-1.528,1.014c-0.171,0.094,0,0.248,0,0.373l-0.857,0.811c0.327,0.375-0.53,0.641,0.109,0.873
	c0.405,0.031,0.608-0.404,0.967-0.451c0.702-0.701,1.403-1.527,2.37-1.652c0.562-0.516,1.325-0.219,1.933-0.641
	c-0.062,0.453-0.889,0.857-0.624,1.436c0.25,0.25,0.577,0.156,0.811-0.047l1.356-1.201c0.904,0.125,1.622-0.373,2.167-0.998
	c-0.125-0.717,0.655-0.326,0.748-0.936c0-0.201-0.265,0.063-0.156-0.154l-0.109-0.031c0.951-1.902,2.635-3.26,3.929-4.943
	c1.31-1.277,2.245-2.853,3.477-4.225l0.826,0.405c0.156-0.545,1.029-0.951,0.67-1.652c0.39-0.982,0.998-1.777,1.543-2.682
	c0.67-1.622,1.917-3.025,2.65-4.615c0.608-0.78,0.53-2.011,1.653-2.432c1.2,1.497,0.592,3.819,1.871,5.316
	c0.218,0.53,1.076,0.701,0.857,1.418l0.265,0.499l-0.265,0.515l0.265,0.639c-0.515,0.732,0.156,1.497,0.141,2.214
	c-0.39,0.437-0.546,0.982-0.624,1.559l-0.125,0.125c0.063-0.031,0.078,0.047,0.125,0.063c0.016,0.093-0.046,0.171-0.125,0.187
	c-0.094,0.794-0.53,1.621-0.67,2.478c-0.031,0.936,0.047,1.949,0.156,2.885c-0.358,1.123-0.203,2.447-0.561,3.586
	c-0.156,0.576,0.171,1.248-0.156,1.715c0.063,0.623-0.14,1.404,0.047,2.059c0.078,1.934,0.624,3.68,1.232,5.395
	c-0.078,0.203-0.234,0.404-0.109,0.639c0.53,0.453,0.67,1.186,0.702,1.902c0.468,1.605,1.606,2.916,1.762,4.646
	c0.187,0.451,0.358,0.92,0.826,1.262c0,0.094,0,0.219-0.109,0.234c-0.281,0.031-0.686-0.109-0.795,0.266
	c0.063,0.467,0.733,0.764,0.375,1.309c0.062,0.592-0.031,1.264,0,1.871c-0.405,0.141-0.873,0.125-1.201,0.482
	c-0.093,0.203-0.296,0.453-0.109,0.672c0.296,0.311,0.748,0.217,1.091,0.078c0.327,0.514-0.109,1.059-0.234,1.574
	c-0.031,0.998-0.437,2.043-0.063,3.023c0.328,0.078,0.203,0.484,0.296,0.75c0.312,0.701,0.779,1.152,1.418,1.652
	c1.435,0.141,3.071,0.094,3.851-1.357c-0.094-0.172,0-0.529,0.234-0.451c0.14-0.516,0.343-1.17,0.109-1.715
	c0.328-0.016,0.156-0.422,0.141-0.594c-0.39-1.059-0.764-2.182-0.562-3.445c0.702-0.498,0.67-1.48,0.749-2.244
	c0-0.484-0.063-0.998-0.483-1.279l-0.592-1.496c1.076-1.684,0.92-4.068,0.701-6.096c-0.249-0.266-0.779-0.078-0.935-0.453
	c0.093-0.498,0.358-0.92,0.53-1.387c-0.016-0.422-0.53-0.67-0.748-0.967c-0.094-0.998-0.25-1.965-0.452-2.916
	c0.343-0.109,0.062-0.279,0.078-0.482c0.047-0.484-0.125-1.045,0.156-1.436c-0.047-0.248-0.218-0.436-0.234-0.701l0.187-0.109
	c0.296-0.529,0.405-1.152,0.749-1.621l0.748-0.141c-0.14,0.781,0.702,1.17,0.826,1.871c0.328,0.234,0.141,0.688,0.343,0.967
	c0.156,0.639,0.951,1.061,0.857,1.762c-0.078,0.344,0.265,0.625,0.296,0.967c-0.156,1.949,1.528,3.211,1.871,4.988
	c-0.016,1.686,1.435,2.807,1.154,4.553c0.094,0.156,0.094,0.406,0.047,0.563l-0.078,0.078c-0.234-0.141-0.312-0.422-0.405-0.672
	c0.156,0.313,0.125,0.719,0.374,1.014c-0.312,1.076,1.232,1.918,0.187,2.807c-0.093,0.203-0.031,0.438,0.109,0.592
	c0.203,0.156,0.515,0.203,0.749,0.078c0.437,1.107,0.545,2.418,0.514,3.664c0.218,0.188,0.078,0.547,0.125,0.748l0.374,0.936
	c0.265-0.047,0.109,0.25,0.25,0.344c0.764,0.795,1.762,0.686,2.775,0.514c1.044-0.156,1.934-1.061,2.432-1.98
	c0.125-0.264-0.156-0.701,0.218-0.826c0.265-1.277-0.53-2.307-0.889-3.43c-0.421-0.186-0.25-0.623-0.452-0.904
	c-0.577-1.324-1.31-2.604-1.341-4.146c-0.187-0.545-0.935-0.141-1.091-0.748c-0.031-0.516,0.296-0.889,0.375-1.357
	c-0.39-1.137,0.093-2.338,0.031-3.477c0.437-0.295-0.031-0.67,0.125-1.09c0.281-0.75,0.296-1.701-0.234-2.355
	c0.14-0.889-0.234-1.637-0.14-2.463c-0.312-1.029,0.249-2.322-0.827-2.994l0.078-0.186c1.746-1.186,3.539-2.979,3.929-5.1
	c0.125-1.277,0.483-2.463,0.562-3.771c-0.141-0.266-0.218-0.64-0.125-0.905c-0.327-0.67-0.343-1.746-1.044-2.354
	c0.109-0.218-0.187-0.265-0.187-0.452c-0.156-1.029-1.076-1.746-1.201-2.806c-1.123-0.265-0.561-1.637-1.45-2.198
	c-0.047-0.546-0.53-0.998-0.296-1.575c-0.203-0.639-0.078-1.481,0.109-2.058V53.43c0.374-0.156,0.561,0.421,0.889,0.421
	c0.265,0.545,0.779,0.826,1.169,1.31l0.031,0.265c1.341,1.481,2.713,3.196,4.272,4.552c0.156,0.889,1.356,0.577,1.341,1.497
	c0.452,0.078,0.717,0.577,1.2,0.562c0.172-0.187,0.265-0.296,0.452-0.483c3.446,1.076,7.203,2.136,10.96,1.684
	c1.559,0.265,2.697-0.92,3.851-1.824c0.749-0.499,0.375-1.466,1.045-1.996c0.093-0.343,0.561-0.39,0.826-0.592
	c0.187,0.078,0.452,0.031,0.53-0.188c0.047-0.374-0.452-0.171-0.53-0.483c-0.421,0.046-0.826,0.171-1.201,0.327
	c0.078-0.281,0.405-0.592,0.562-0.857c0.53,0.016,0.92-0.67,1.465-0.265c0.218,0.016,0.39-0.109,0.405-0.327
	c0.047-0.125-0.046-0.234-0.14-0.265c-0.281,0.047-0.515-0.063-0.67-0.218c-0.561-0.063-0.982,0.234-1.497,0.296
	c0.016-0.53,0.795-0.639,1.185-0.935c0.312-0.156,0.749,0,0.982-0.343c0.031-0.203-0.031-0.405-0.234-0.483
	c-0.14,0.063-0.343,0.031-0.515,0.031c-0.093-0.14-0.156-0.374-0.343-0.405c-1.325,0.078-2.619,0.546-3.321,1.84l-0.53,0.514
	c-0.016-0.218,0.078-0.639-0.218-0.701c-0.499,0.67-1.372,0.327-1.762,0.998c-0.265,0.483-0.374,1.014-0.795,1.435
	c-0.063,0.468,0,0.982-0.14,1.418c-1.169-0.25-2.448-0.826-3.664-1.231c-1.247-0.826-2.604-1.575-4.007-1.949
	c-0.203-0.203-0.483-0.515-0.795-0.608c-0.608,0.359-0.312-0.608-0.811-0.514c-0.421,0.14-0.499-0.437-0.904-0.234
	c-0.172-0.016-0.125-0.218-0.188-0.328c-0.592-0.296-1.091-1.044-1.652-1.418c-0.234-0.187,0.031-0.53-0.328-0.562
	c-0.374-0.218-0.421-0.686-0.748-0.982c-0.483-0.281-0.39-0.889-0.857-1.123c0.249-0.499-0.359-0.749-0.562-1.154
	c-0.561-0.639-0.842-1.559-1.465-2.214c-0.359-0.234-0.343-0.608-0.593-0.889c-0.221-0.137-0.394-0.319-0.57-0.484 M50.517,25.335
	c-0.007-0.037-0.001-0.02,0,0.006C50.517,25.339,50.517,25.338,50.517,25.335z M59.558,25.75c0.093-0.024,0.184-0.036,0.267-0.01
	C59.723,25.693,59.638,25.711,59.558,25.75z M39.697,32.102c0.007,0.008,0.017,0.015,0.024,0.023
	c-0.036-0.053-0.075-0.101-0.103-0.163L39.697,32.102z M57.47,38.541l-0.037,0.037c0.003,0.003,0.003,0.007,0.006,0.01L57.47,38.541
	z M62.185,46.522c-0.185-0.171-0.375-0.325-0.63-0.389c-0.203-0.67-0.546-1.372-1.278-1.684c-0.187-0.39-0.546,0-0.889-0.188
	c-1.107-0.374-2.058-1.06-3.118-1.528l0.156-0.483l0.109,0.327c0.093-0.265-0.047-0.67,0.265-0.811
	c0.016-0.094-0.031-0.203,0.031-0.265c0.094-0.016,0.078,0.093,0.078,0.14h-0.031v0.125h0.031c0.016-0.078-0.031-0.172,0.047-0.234
	c0.046,0.296,0.016,0.514-0.078,0.795l0.109-0.312l0.031,0.046c0.109-0.234-0.062-0.857,0.125-1.169
	c0.156,0.078,0,0.234,0.063,0.312c0.312-0.421,0.358-1.06,0.265-1.543c0.156,0.109,0.141,0.343,0.188,0.53h0.078
	c0.078-0.187-0.156-0.109-0.031-0.265c-0.093-0.047-0.14-0.327-0.156-0.53c0.094-0.109,0.047,0.141,0.109-0.031
	c-0.063-0.218-0.218-0.483-0.265-0.749l0.041-0.041c-0.219-0.189-0.042-0.554-0.103-0.708c0.063-0.016,0.14,0.016,0.187,0.078v0.031
	c0.328-0.546,0-1.107,0-1.715h0.109c-0.016-0.063-0.031-0.109-0.078-0.156c0.063,0.187-0.437,0.094-0.452,0.375
	c-0.031-0.047-0.405,0.452-0.265,0h0.078c-0.016-0.016-0.047-0.031-0.031-0.078l0.026-0.026c-0.033,0.015-0.126,0.048-0.182,0.026
	l-0.109-0.109l0.296-0.218c-0.125-0.063-0.281-0.031-0.374-0.188c0.016-0.25,0.343-0.156,0.53-0.234
	c0.515-0.296,0.702-1.107,1.123-1.31c-0.624,0.234-0.67,1.138-1.418,1.278c-0.047-0.296-0.406,0.125-0.343-0.218l0.483-0.499
	l0.047,0.047c0.109-0.234,0.187-0.67,0.514-0.608l-0.109-0.109c0.171-0.218,0.499-0.265,0.717-0.374
	c-0.049-0.038-0.162-0.144,0-0.188c0.109-0.062,0.187,0.141,0.25-0.031l-0.031-0.109c0.312-0.328,1.029-0.218,0.935-0.795
	c0.078-0.078,0.312-0.156,0.296-0.078c0-0.296,0.468-0.14,0.374-0.483c0.094-0.14,0.25-0.265,0.265-0.452
	c-0.421-0.343-1.06,1.06-1.091-0.14c-0.093,0.031-0.109-0.078-0.187-0.109c0-0.187,0.218-0.296,0.187-0.499
	c0.141-0.062,0.187-0.327,0.343-0.249c0.016-0.031-0.031-0.172,0.078-0.265c0.515-0.234,0.343-0.795,0.78-1.091l-0.187,0.109
	l-0.031-0.218c-0.031,0.125-0.281,0.171-0.078,0.296c-0.031,0.296-0.358,0.561-0.374,0.795c-0.25,0.125-0.405,0.468-0.67,0.515
	c-0.203-0.187,0.203-0.265,0.078-0.483c0.109-0.031,0.094-0.265,0.218-0.156c0.016-0.39,0.483-0.358,0.562-0.702
	c-0.047,0.063-0.109,0.078-0.187,0.078c-0.109-0.125,0.031-0.218,0.109-0.312c-0.109,0.047-0.234,0.078-0.327,0.156l-0.078-0.078
	l0.265-0.187c-0.14-0.094-0.218,0.218-0.312,0l0.421-0.296c-0.28-0.031-0.343,0.171-0.561,0.265
	c-0.063-0.187,0.234-0.281,0.327-0.375c-0.015-0.171-0.14,0-0.218,0c-0.467,0.234-0.639,0.795-1.123,0.889
	c0.546-0.421,0.827-0.951,1.466-1.231c0.109-0.343,0.468-0.499,0.624-0.826c-0.437-0.187-0.187,0.421-0.561,0.499
	c-0.265,0.203-0.577,0.421-0.857,0.515c0.467-0.374,1.122-0.748,1.2-1.418c-0.405,0.218-0.405,0.795-0.857,0.779
	c-0.078-0.187,0.125-0.343,0.187-0.515l-0.421,0.562c-0.016-0.016-0.046-0.046-0.031-0.078c-0.51,0.427-0.823,1.192-1.388,1.527
	l-0.078-0.062L58,28.781c-0.187,0.094-0.483,0.031-0.561,0.296C57.33,29,57.47,28.921,57.47,28.859
	c0.811-0.156,1.185-1.06,1.731-1.434c-0.141-0.188,0.203-0.421,0.327-0.624l0.343-0.312c-0.016-0.047-0.125,0.125-0.188,0
	l0.265-0.296c-0.125,0.031-0.514,0.047-0.53,0.265c-0.421,0.421-1.014,1.013-1.466,1.465l0.265-0.421
	c-0.016,0.016-0.031,0.047-0.078,0.047l-0.031-0.047l0.717-0.889c-0.327,0.203-1.013,0.234-1.123,0.811
	c-0.062,0-0.125,0.093-0.156,0c0.234-0.811,1.325-0.702,1.715-1.45c0.097-0.079,0.191-0.173,0.295-0.224
	c-0.185,0.047-0.378,0.162-0.544,0.255l-0.046-0.031c0.25-0.156,0.25-0.499,0.608-0.53c0.156,0.031,0.265-0.047,0.405-0.078
	c-0.296-0.047-0.795-0.094-1.044,0.187c-0.094,0.171-0.281,0.374-0.421,0.452c0.125-0.203,0.343-0.639,0.639-0.749
	c-0.047,0-0.125-0.031-0.141-0.14c-0.312,0.39-0.779,0.749-1.2,1.154l-0.047-0.031l0.826-0.904c-0.062-0.016-0.14,0.031-0.187-0.031
	V25.18c-0.125,0.078-0.203,0.296-0.374,0.421c-0.296,0.265-0.608,0.702-1.014,0.748c-0.218-0.421,0.406-0.421,0.312-0.826
	l0.328-0.156c-0.312-0.031-0.655,0.561-1.014,0.795c-0.047-0.016-0.031-0.078-0.031-0.109l-0.031,0.031
	c-0.125-0.452,0.016-1.029,0.296-1.341c0,0.031-0.016,0.046-0.047,0.062l-0.062-0.109c0.015-0.374,0.545-0.795,0.374-1.014v-0.14
	c-0.639,0.468-1.107,0.967-1.684,1.497l-0.046-0.046c-0.016,0.062-0.031,0.125-0.078,0.156c-0.047-0.016-0.031-0.078-0.031-0.109
	c-0.25,1.014-0.873,1.934-1.2,2.947c-0.281,0.327-0.655,0.452-1.045,0.499c-0.156-0.218-0.016-0.624-0.109-0.904
	c-0.608-1.543-0.857-3.134-2.105-4.412c0.031,0.187,0.172,0.608,0.421,0.748c0.015,0.172,0.28,0.281,0.187,0.452l-0.156-0.187
	c0.141,0.405,0.483,0.795,0.562,1.263l0.078-0.109c0.203,0.624,0.593,1.216,0.593,1.871c-0.187-0.203-0.203-0.468-0.296-0.717
	c-0.016,0.25,0.187,0.452,0.109,0.686c-0.078-0.515-0.593-0.827-0.515-1.388l-0.047,0.218l-0.109-0.031
	c-0.39-0.889-1.575-1.434-1.419-2.541l0.078-0.562c-0.203,0.25-0.25,0.67-0.156,0.967c-0.046,0.125-0.109,0.031-0.187,0
	l-0.078-0.078c0.327,0.717,1.013,1.403,1.169,2.167l-0.374-0.561c0.078,0.203,0.312,0.545,0.483,0.717l-0.078,0.078
	c-0.138-0.323-0.67-0.435-0.593-0.813c-0.001,0.029-0.009,0.064-0.046,0.064c-0.499-0.686-0.998-1.435-0.998-2.354
	c-0.328,1.466,0.795,2.105,1.497,3.368l-0.047,0.031c-0.842-0.873-1.871-1.762-1.793-3.103h-0.078
	c-0.078,1.512,0.982,2.619,2.027,3.664c0.063,0.312,0.375,0.608,0.141,0.936c-0.094-0.125-0.188-0.265-0.141-0.452
	c0,0.047-0.016,0.063-0.047,0.078l-0.062-0.109c0.093,0.141,0.109,0.328,0.109,0.515l0.031-0.031
	c0.109,0.141-0.078,0.234-0.14,0.296l-0.187-0.078c0,0.094,0.016,0.187-0.078,0.234c-0.25-0.171-0.281-0.468-0.421-0.748
	l-0.146-0.207c0.009,0.084-0.018,0.24,0.036,0.315l-0.031,0.031c-0.218-0.171-0.39-0.53-0.717-0.624l0.156,0.405
	c-0.063,0.078-0.109-0.078-0.187-0.078c0.109,0.296,0.515,0.562,0.327,0.904c-0.156,0-0.28-0.125-0.327-0.265
	c0-0.016,0.031,0.265-0.156,0.218c-0.39-0.25-0.827,0.452-1.123,0.047c-0.063,0.125-0.296,0.031-0.375,0.218
	c-0.218-0.125-0.545-0.031-0.748-0.218c-0.078,0.031-0.156,0.094-0.265,0.078c-0.421-0.125-0.421-0.702-0.811-0.749
	c-0.094,0.156-0.296,0.328-0.499,0.374c-0.047-0.14-0.203-0.249-0.218-0.233c0.047,0.156-0.063,0.28-0.187,0.343
	c-0.53-0.016-0.967-0.14-1.528-0.156v-0.109c-0.421,0.343-1.107,0.452-1.653,0.343c-0.109,0.14-0.296,0.046-0.452,0.062
	c-0.218-0.047-0.312-0.28-0.452-0.483v-0.109l-0.031,0.031l-0.405-0.624c-0.031,0.468,0.515,0.717,0.25,1.153
	c-0.078,0.031-0.171-0.031-0.187-0.109v-0.234c-0.047,0.031-0.063-0.047-0.109-0.063h-0.031v0.031h0.031
	c0.063,0.031,0.031,0.109,0.047,0.156c-0.14-0.187-0.187,0.188-0.265,0.296c0.031,0.156-0.046,0.265-0.078,0.405
	c-0.047-0.016-0.031-0.078-0.031-0.109c-0.171,0.296-0.405-0.218-0.562-0.156c0.141,0.296,0.218,0.453,0.515,0.608
	c0.187,0.452,0.39,1.013,0.53,1.528l-0.078,0.078c-0.405-0.125-0.764-0.452-0.826-0.858c-0.016,0.156-0.109,0.031-0.187,0.109
	c-0.234-0.031-0.375-0.296-0.593-0.483c0.172,0.296,0.375,0.592,0.639,0.857c-0.093,0.171-0.234,0-0.343,0
	c0.187,0.203,0.53,0.515,0.857,0.749l-0.14,0.031c0.093,0.046,0.405,0.187,0.561,0.312c-0.09,0.09-0.189-0.004-0.265-0.007V31.4
	h-0.046v0.031c-0.468-0.093-1.138-0.187-1.45-0.514c0.016,0.234,0.328,0.421,0.562,0.514c0.374,0.25,0.935,0.281,1.263,0.421
	c-0.156,0.281,0.218,0.53,0.187,0.858c-0.349-0.046-0.727-0.271-1.02-0.585c0.443,0.664,1.439,0.666,1.815,1.474
	c0.28,0.343,0.654,0.452,0.935,0.608c0.047,0.171-0.078,0.218-0.187,0.296l-0.717,0.031h0.078c-0.031,0.577-0.811,0.546-1.278,0.686
	c-0.328-0.109-0.78,0.234-0.936-0.156c-0.203,0.125-0.437,0.405-0.749,0.187c-0.022-0.007-0.028-0.026-0.031-0.046
	c-0.002,0.02-0.009,0.039-0.031,0.046c0.39,0.218,0.483,0.031,0.857,0.296c0.732,0.14,1.2-0.234,2.011-0.109
	c0.14,0.25-0.047,0.483-0.296,0.483c-0.094,0.016-0.218,0-0.218-0.109h0.031v-0.078h-0.031c-0.047,0.218-0.39,0.031-0.343,0.296
	h0.639c0.062,0.109,0,0.343-0.187,0.312h-0.078c0.14,0.437-0.405,0.265-0.515,0.515c-0.25-0.078-0.25,0.016-0.421,0.109
	c-0.187,0.203-0.031,0.67-0.452,0.639c0.468,0.188-0.078,0.437-0.063,0.717c-0.046,0-0.125-0.031-0.156,0.031
	c0.171,0.156,0.546-0.203,0.639,0.187l-0.047,0.156c-0.187,0.187-0.545,0.421-0.701,0.514c0.39,0.047,0.795-0.187,1.076-0.437
	c0.093-0.016,0.156,0.031,0.234,0.063c0,0.234-0.468,0.156-0.296,0.499c0-0.078,0.094-0.125,0.14-0.187
	c0.203,0.093,0.188-0.031,0.421,0c0.109,0.203-0.218,0.109-0.187,0.327c0.094-0.047,0.094,0.078,0.141,0.109
	c0.062,0.514-0.499,0.686-0.749,0.935h-0.109c0.156,0.094,0.39-0.093,0.561-0.031c-0.078,0.218-0.405,0.14-0.483,0.374
	c0.25,0.109,0.624-0.203,0.857-0.031c-0.031,0.063-0.125,0.016-0.187,0.031v0.156c0.063-0.078,0.171-0.031,0.265-0.047
	c0.14,0.063,0.047,0.203,0.078,0.296l-0.047,0.047c0.296,0,0.561-0.016,0.608-0.296c0.063-0.093,0.156-0.14,0.25-0.156
	c0.125,0.109-0.14,0.171-0.109,0.296c0.094,0.031,0.312-0.358,0.483-0.483c0.171,0.203-0.156,0.39,0,0.561
	c0.094-0.156,0.312-0.047,0.499-0.187c0.047,0.437,0.109,0.686,0.14,1.154l0.047,0.047c0-0.063-0.031-0.312,0.063-0.421
	c0.265,0.281-0.016,0.842,0.343,1.014c-0.904,0.592-1.855,1.247-2.884,1.652c-1.316-0.122-2.023,0.996-2.567,2.026 M58.079,33.864
	L58.079,33.864C58.1,33.881,58.112,33.888,58.079,33.864z M58.936,27.923h-0.047c-0.011,0.009-0.02,0.022-0.031,0.031h0.031
	L58.936,27.923z M58.858,27.955L58.858,27.955C58.858,27.955,58.858,27.955,58.858,27.955L58.858,27.955z"/>
<polygon fill="#FFDD00" points="49.535,22.935 49.8,23.574 49.535,22.935 "/>
<polygon fill="#FFDD00" points="56.8,24.135 56.956,23.683 56.8,24.057 56.8,24.135 "/>
<polygon fill="#FFDD00" points="56.457,24.805 56.317,24.961 56.457,24.805 "/>
<path fill="#FFDD00" d="M56.021,25.522c-0.125,0.203,0.125,0.125,0.063,0.343c-0.328,0.343-0.468,0.826-0.562,1.31
	c0.156-0.078,0.265-0.094,0.343-0.265l-0.031-0.047c0.125-0.047,0.203-0.156,0.218-0.327l0.031,0.031
	c0,0.172,0.031-0.031-0.031-0.031c0.171-0.047,0.14-0.296,0.109-0.483l-0.031-0.047c0.172-0.031,0.125-0.265,0.188-0.405
	c-0.047-0.016-0.125,0.031-0.156-0.047c0.125-0.093,0.234-0.25,0.187-0.437C56.114,25.086,56.083,25.367,56.021,25.522
	L56.021,25.522z"/>
<polygon fill="#FFDD00" points="51.156,25.445 51.53,26.053 51.156,25.445 "/>
<polygon fill="#FFDD00" points="52.123,26.115 52.154,26.302 52.123,26.115 "/>
<polygon fill="#FFDD00" points="51.406,26.427 51.53,26.645 51.406,26.427 "/>
<path fill="#FFDD00" d="M59.762,26.863c0.047-0.031,0.078-0.093,0.14-0.063l-0.031-0.046L59.762,26.863L59.762,26.863z"/>
<polygon fill="#FFDD00" points="51.296,26.801 51.453,27.097 51.296,26.801 "/>
<path fill="#FFDD00" d="M58.375,27.362c0.141-0.187,0.39-0.312,0.406-0.53L58.375,27.362L58.375,27.362z"/>
<path fill="#FFDD00" d="M52.341,27.846c-0.016-0.281-0.094-0.546-0.218-0.795L52.341,27.846L52.341,27.846z"/>
<path fill="#FFDD00" d="M52.575,27.768c0.015-0.218-0.016-0.421-0.109-0.592C52.45,27.471,52.622,27.456,52.575,27.768
	L52.575,27.768z"/>
<path fill="#FFDD00" d="M58,28.22c0.25-0.25,0.53-0.499,0.857-0.67l0.109-0.187C58.64,27.705,58.188,27.877,58,28.22L58,28.22z"/>
<path fill="#FFDD00" d="M49.956,28.298c0-0.234-0.218-0.375-0.187-0.608C49.675,27.908,49.909,28.08,49.956,28.298L49.956,28.298z"
	/>
<path fill="#FFDD00" d="M45.575,28.22c0.218,0.031,0.405,0.093,0.639,0.078c0.094-0.172-0.171-0.281-0.187-0.452
	C45.824,27.846,45.684,28.08,45.575,28.22L45.575,28.22z"/>
<polygon fill="#FFDD00" points="51.109,28.329 51.188,28.173 51.109,28.251 51.109,28.329 "/>
<path fill="#FFDD00" d="M43.439,28.251v0.078c0.405,0.016,0.889,0.141,1.2,0.031l0.031,0.125l0.156-0.078
	c-0.265-0.14-0.67-0.203-0.967-0.234C43.72,28.204,43.532,28.11,43.439,28.251L43.439,28.251z"/>
<path fill="#FFDD00" d="M42.207,28.438c-0.14,0.156,0.343,0.343-0.078,0.421c-0.047-0.218-0.031-0.452-0.296-0.452l-0.265,0.031
	c0.016,0.203,0.187,0.358,0.343,0.53l0.187-0.156c-0.109,0.265,0.14,0.405,0.327,0.562c0.265-0.109,0.468,0.452,0.64,0.047h0.078
	c0.063-0.39,0.031-0.686,0.109-1.061C42.877,28.469,42.503,28.313,42.207,28.438L42.207,28.438z"/>
<polygon fill="#FFDD00" points="40.555,28.36 40.602,28.36 40.602,28.703 40.555,28.703 40.555,28.36 "/>
<path fill="#FFDD00" d="M43.252,29.295c0.062,0.016,0.093-0.063,0.156-0.031c0.031-0.265,0.063-0.218,0.265-0.374
	c0.14,0.063,0.203,0.25,0.405,0.218l0.343-0.063l-0.046,0.187c0.171-0.078,0.156-0.327,0.265-0.499
	c-0.327-0.156-0.779-0.281-1.2-0.328C43.252,28.688,43.361,28.968,43.252,29.295L43.252,29.295z"/>
<path fill="#FFDD00" d="M45.98,28.921l0.125-0.141c-0.141-0.046,0-0.14-0.047-0.265h-0.187L45.98,28.921L45.98,28.921z"/>
<path fill="#FFDD00" d="M41.116,28.594h-0.062c0,0.078,0.109,0.265,0.187,0.406l-0.125,0.046c-0.046,0.063,0.063,0.296,0.234,0.25
	l-0.078-0.187c0.125,0.031,0.343,0.265,0.53,0.343c0.063-0.046,0.078-0.109,0.063-0.187c-0.281-0.218-0.437-0.592-0.749-0.717
	V28.594L41.116,28.594z"/>
<polygon fill="#FFDD00" points="40.71,28.812 40.789,28.625 40.71,28.734 40.71,28.812 "/>
<path fill="#FFDD00" d="M45.014,29.374c0.156,0,0.39,0.171,0.483,0c-0.016-0.25-0.078-0.421-0.109-0.639
	C45.091,28.781,45.091,29.155,45.014,29.374L45.014,29.374z"/>
<path fill="#FFDD00" d="M40.789,29.108c0.031,0.047,0.093,0.063,0.14,0.078c0.047-0.125,0.094-0.375-0.031-0.452
	C40.882,28.875,40.726,28.953,40.789,29.108L40.789,29.108z"/>
<path fill="#FFDD00" d="M44.639,29.077c0.078,0.016,0.172-0.171,0.188-0.296L44.639,29.077L44.639,29.077z"/>
<path fill="#FFDD00" d="M46.354,28.968c-0.281-0.016-0.296,0.265-0.328,0.483c0.265,0.125,0.405-0.187,0.562-0.296L46.323,29
	c0.031-0.063,0.125-0.031,0.187-0.031c0.047-0.141-0.109-0.094-0.156-0.156l-0.109,0.047L46.354,28.968L46.354,28.968z"/>
<path fill="#FFDD00" d="M59.684,29.155c0.109-0.016,0.125-0.141,0.109-0.234C59.762,29.03,59.668,29.03,59.684,29.155L59.684,29.155
	z"/>
<path fill="#FFDD00" d="M44.827,29.233c0.015,0.016,0.046,0.031,0.031,0.063l0.156-0.374C44.951,29.03,44.904,29.249,44.827,29.233
	L44.827,29.233z"/>
<path fill="#FFDD00" d="M45.575,29.42h0.109c-0.031-0.125,0.062-0.312-0.078-0.375C45.543,29.14,45.59,29.295,45.575,29.42
	L45.575,29.42z"/>
<path fill="#FFDD00" d="M43.33,29.639v0.078c0.203-0.109,0.375,0.25,0.53,0.031c0.016,0.016,0.047,0.047,0.031,0.078
	c0.203,0.016,0.218-0.296,0.405-0.296c0.094,0.078-0.047,0.171-0.063,0.265c0.141,0.047,0.187-0.281,0.109-0.421
	c-0.031,0.062-0.109,0.031-0.156,0.047c0.015,0.062,0,0.14-0.078,0.187c-0.125-0.234,0.016-0.296-0.25-0.421
	C43.486,29.03,43.455,29.467,43.33,29.639L43.33,29.639z"/>
<path fill="#FFDD00" d="M45.201,29.607c-0.109-0.187-0.078,0.046-0.218,0v0.187l0.218-0.047c-0.109-0.078,0.031-0.14,0.031-0.218
	C45.248,29.561,45.216,29.576,45.201,29.607L45.201,29.607z"/>
<path fill="#FFDD00" d="M44.717,29.669v0.078l0.14-0.14C44.78,29.514,44.749,29.607,44.717,29.669L44.717,29.669z"/>
<path fill="#FFDD00" d="M41.833,30.87c0.063-0.016,0.078,0.047,0.109,0.078c-0.296-0.281-0.499-0.624-0.64-0.967l-0.109-0.078
	C41.116,30.325,41.568,30.714,41.833,30.87L41.833,30.87z"/>
<path fill="#FFDD00" d="M41.677,30.168c-0.047,0.218,0.281,0.203,0.265,0.405c0.031-0.109,0.109-0.171,0.078-0.296
	C41.849,30.418,41.864,30.106,41.677,30.168L41.677,30.168z"/>
<path fill="#FFDD00" d="M42.285,30.355c-0.063,0.109-0.031,0.312-0.047,0.406l0.156,0.078C42.425,30.699,42.55,30.371,42.285,30.355
	L42.285,30.355z"/>
<path fill="#FFDD00" d="M42.613,30.839v-0.047c0.078,0,0.171,0.125,0.234,0.234c-0.078-0.016,0-0.218,0.031-0.343h0.047v-0.078
	l-0.078,0.125l-0.156-0.188C42.659,30.605,42.597,30.714,42.613,30.839L42.613,30.839z"/>
<polygon fill="#FFDD00" points="43.034,30.792 43.111,30.652 43.034,30.761 43.034,30.792 "/>
<path fill="#FFDD00" d="M43.221,30.948l-0.047-0.031c0.047,0-0.078,0.171-0.031,0.296c0.094-0.062,0.499,0,0.483-0.265l0.047,0.031
	V30.87l-0.047,0.047c-0.047-0.031-0.031-0.078-0.031-0.125l-0.109,0.078c0.031-0.063-0.047-0.171-0.156-0.187h-0.078L43.221,30.948
	L43.221,30.948z"/>
<path fill="#FFDD00" d="M58.671,31.961c-0.078,0.031-0.265,0.14-0.405,0.265c0.187,0.093,0.577-0.421,0.67,0v0.109h0.078
	c-0.14-0.203,0.109-0.421-0.078-0.608C58.827,31.759,58.671,31.821,58.671,31.961L58.671,31.961z"/>
<path fill="#FFDD00" d="M59.638,31.993v0.109c0.125,0.016,0.218-0.109,0.234-0.218v-0.109
	C59.715,31.759,59.715,31.915,59.638,31.993L59.638,31.993z"/>
<path fill="#FFDD00" d="M41.007,31.961c-0.203,0.437,0.421,0.592,0.608,0.857c0.405,0.203,0.998,0.483,1.419,0.156
	c0.062,0.156,0.171,0,0.296,0.109v-0.109c-0.093-0.078-0.25-0.374-0.452-0.265c-0.374-0.031-0.779-0.234-1.153-0.375
	C41.49,32.195,41.288,31.977,41.007,31.961L41.007,31.961z"/>
<path fill="#FFDD00" d="M41.054,32.663c-0.016,0.358,0.514,0.405,0.779,0.561h0.374C41.786,33.115,41.428,32.897,41.054,32.663
	L41.054,32.663z"/>
<path fill="#FFDD00" d="M41.381,33.271c0.265,0.343,0.764,0.39,1.169,0.405l0.031-0.187C42.145,33.489,41.786,33.349,41.381,33.271
	L41.381,33.271z"/>
<path fill="#FFDD00" d="M43.065,33.645c0.125,0.078,0.28,0,0.374-0.078c-0.031,0-0.094,0.016-0.109-0.031
	c0.125-0.156,0.312,0.109,0.452-0.078c-0.25-0.374-0.421,0.218-0.67,0.031C43.111,33.552,43.034,33.583,43.065,33.645L43.065,33.645
	z"/>
<path fill="#FFDD00" d="M42.737,33.676c0.078,0.125,0.234,0.047,0.25-0.078v-0.109C42.909,33.552,42.706,33.505,42.737,33.676
	L42.737,33.676z"/>
<polygon fill="#FFDD00" points="56.052,34.285 55.865,34.207 55.942,34.285 56.052,34.285 "/>
<path fill="#FFDD00" d="M55.865,34.394c-0.047,0.094,0.078,0.094,0.109,0.14h0.078C56.099,34.456,55.989,34.347,55.865,34.394
	L55.865,34.394z"/>
<path fill="#FFDD00" d="M56.504,34.846v0.374l0.561-0.686c-0.047-0.062-0.14-0.016-0.187,0
	C56.878,34.799,56.597,34.659,56.504,34.846L56.504,34.846z"/>
<path fill="#FFDD00" d="M55.787,34.955c0.156,0,0.156-0.203,0.234-0.265c-0.14,0.016-0.312-0.187-0.374-0.031L55.787,34.955
	L55.787,34.955z"/>
<path fill="#FFDD00" d="M42.877,35.064c-0.452,0.094-0.561,0.405-1.044,0.452l-0.031-0.109c-0.047-0.031-0.109,0.172-0.078,0.296
	c0.655,0,1.185-0.702,1.715-0.936C43.158,34.69,43.127,35.017,42.877,35.064L42.877,35.064z"/>
<polygon fill="#FFDD00" points="57.517,35.813 57.548,35.813 57.548,36 57.517,36 57.517,35.813 "/>
<path fill="#FFDD00" d="M41.35,36.218c0.078,0.031,0.265-0.016,0.188-0.109C41.475,36.155,41.396,36.155,41.35,36.218L41.35,36.218z
	"/>
<path fill="#FFDD00" d="M57.174,36.639l-0.031-0.047c-0.141,0.078-0.078,0.312,0,0.421c0.156,0.078,0.109,0.608,0.405,0.375
	c0-0.39,0.016-0.655-0.109-0.982C57.299,36.358,57.174,36.467,57.174,36.639L57.174,36.639z"/>
<polygon fill="#FFDD00" points="57.174,37.231 57.206,37.465 57.174,37.231 "/>
<path fill="#FFDD00" d="M57.58,38.322c0.156,0.749,0.826,1.606,0.187,2.354v0.109c0.047-0.343,0.358-0.499,0.343-0.857
	C58.047,39.352,57.985,38.697,57.58,38.322L57.58,38.322z"/>
<polygon fill="#FFDD00" points="57.47,39.149 57.548,39.367 57.47,39.149 "/>
<path fill="#FFDD00" d="M57.252,40.146V39.71C57.112,39.85,57.361,39.959,57.252,40.146L57.252,40.146z"/>
<polygon fill="#FFDD00" points="58.141,40.193 58.109,40.302 58.141,40.193 "/>
<path fill="#FFDD00" d="M57.206,40.941c0.015-0.234,0.14-0.499,0.046-0.67C57.127,40.458,57.159,40.692,57.206,40.941L57.206,40.941
	z"/>
<polygon fill="#FFDD00" points="57.065,40.567 57.096,40.567 57.096,40.754 57.065,40.754 57.065,40.567 "/>
<polygon fill="#FFDD00" points="58.109,40.599 58.141,40.599 58.141,40.754 58.109,40.754 58.109,40.599 "/>
<polygon fill="#FFDD00" points="42.769,40.973 42.737,40.754 42.737,40.941 42.769,40.973 "/>
<polygon fill="#FFDD00" points="56.535,40.833 56.582,41.16 56.535,40.833 "/>
<polygon fill="#FFDD00" points="56.613,41.082 56.644,41.082 56.644,41.316 56.613,41.316 56.613,41.082 "/>
<path fill="#FFDD00" d="M45.388,41.425v0.53c0.063-0.187,0.187-0.468,0.156-0.686l-0.125,0.187L45.388,41.425L45.388,41.425z"/>
<path fill="#FFDD00" d="M45.684,41.768c0.171-0.031,0.296-0.218,0.187-0.452C45.7,41.456,45.918,41.627,45.684,41.768L45.684,41.768
	z"/>
<path fill="#FFDD00" d="M43.626,42.516l0.187-0.608C43.813,42.205,43.361,42.205,43.626,42.516L43.626,42.516z"/>
<path fill="#FFDD00" d="M43.361,42.766l0.156-0.031l-0.187-0.53C43.221,42.36,43.345,42.625,43.361,42.766L43.361,42.766z"/>
<polygon fill="#FFDD00" points="55.865,89.912 55.942,90.1 55.865,89.912 "/>
<path fill="#FFDD00" d="M56.831,94.527c0.109,0.107,0.265,0.107,0.421,0.107c0.141-0.279-0.109-0.561-0.187-0.826
	C56.769,93.918,56.831,94.293,56.831,94.527L56.831,94.527z"/>
<path fill="#FFDD00" d="M44.562,96.506c-0.047,0.25,0.047,0.578,0.343,0.563c0.281,0.016,0.468-0.172,0.702-0.266v-0.779
	C45.263,96.18,44.795,96.133,44.562,96.506L44.562,96.506z"/>
<path fill="#F26531" d="M163.49,31.044c1.21,1.732-0.066,3.851,0.102,5.813c-0.175,0.534,0.009,1.157-0.08,1.661l-0.292,0.022
	l-0.424,1.614c0.443,0.535,1.513,0.411,1.517,1.299c1.499,0.513,2.967,1.103,4.275,1.961c0.749,0.72,0.792,1.778,1.508,2.433
	c0.161,0.641,0.504,1.307,0.89,1.813c-0.062,0.301-0.039,0.593,0.05,0.853c1.18-0.336,0.953,1.346,1.931,1.438
	c0.597,0.163,0.846,0.919,1.44,1.103c0.26,0.365-0.049,1.128,0.674,1.123c0.665-0.034,1.3,0.155,1.765,0.527
	c0.054,0.978,1.131,0.793,1.724,1.141c1.238,0.002,2.081,0.632,2.836,1.457c1.281,0.297,2.424,0.843,3.517,1.466
	c0.291,0.906,1.048,0.493,1.696,0.58c1.168,0.364,2.119,0.204,3.11-0.26c0.454,0,1.015-0.028,1.474-0.214
	c0.35,0.006,0.012,0.518,0.439,0.411c0.551-1.783,0.703-3.826,1.256-5.629c0.203,0.027,0.623-0.329,1.025-0.253l0.681-0.3
	c-0.169-0.126-0.382-0.072-0.561,0.027c0.329-0.451,0.93-0.163,1.351-0.375c0.564-0.048,0.979-0.673,1.531-0.33
	c4.027,2.113,8.246,3.88,12.25,6.011c-0.616,3.487-1.569,7.031-2.353,10.536l-2.248,9.604c-1.101,0.512-2.181,1.17-3.323,1.531
	c-0.774-0.229-1.388-0.725-2.082-1.086l-9.532-4.9c-0.31,0-0.477-0.291-0.643-0.438l-0.084-0.445l1.593-7.813
	c-0.757-0.35-1.756-0.444-2.084-1.375c-0.467,0.246-0.278,1.448-1.173,0.894c-1.256-0.479-2.734-0.535-3.771-1.417
	c-2.696-0.365-4.943-1.597-7.659-1.964c-1.803-1.317-3.638-2.556-5.649-3.55l-2.443-1.011c-0.888,1.221-1.478,2.689-2.505,3.871
	c-0.229,1.393-0.25,2.917-0.903,4.088c-0.105,1.389-0.074,2.838,0.069,4.22l-0.439,5.08c0.213,1.473,0.877,2.82,0.75,4.373
	l-0.303,0.104c0.552,0.342,0.464,0.99,0.39,1.537c1.246,3.307,2.081,6.742,2.919,10.156c0.307,1.549,0.322,3.574-0.893,4.771
	c-1.171,1.492-3.017,0.789-4.637,0.715c-0.878-0.223-1.989-0.248-2.853-0.572c-0.264,1.037-0.846,2.135-1.963,2.459
	c-0.966-0.027-1.73,0.736-2.779,0.408c-3.062-1.012-5.12-3.953-7.207-6.381c-0.112-0.242-0.263-0.346-0.375-0.588
	c-0.615,0.123-1.333,0.543-1.883,0.344c-0.314,0.186-0.561,0.482-0.787,0.781l-0.055-0.049c-0.397,0.34-0.596,0.746-1.001,1.145
	l-0.019,0.143c-0.36,0.219-1.061,0.063-1.085,0.699l-0.376,0.342c-0.516,1.373-0.083,3.518-1.735,3.975
	c-0.14,0.27-0.495,0.305-0.781,0.287c-0.507-0.068-0.612-0.662-0.749-1.031c-0.386-2.178-0.601-4.869,0.489-6.971
	c0.348-0.592,0.45-1.342,0.534-2.115c-0.266-0.324-1.026,0.109-0.847-0.609c0.041-1.213,0.113-2.668,0.594-3.779
	c0.448-0.867,1.299-0.299,1.984-0.33c0.194,0.088,0.321,0.373,0.566,0.242c-0.714-1.129-1.805-1.916-2.812-2.713
	c-0.313-0.125-0.543,0.051-0.776,0.246l-0.006,0.041l-0.142-0.02c0.102-0.297,0.006-0.66-0.117-0.965
	c0.272,0.119,0.602,0.432,0.986,0.34c-0.126-0.285-0.638-0.17-0.764-0.455c-0.832-0.256-1.872-0.5-2.544-1.025l0.014-0.102
	c-1.229-0.682-2.665-0.133-3.862,0.324c-0.741-0.018-1.084-0.682-1.548-0.91c-0.274-0.264,0.001-0.619,0.118-0.871
	c1.917-1.66,4.159-2.369,6.411-2.848c0.769-0.041,1.556-0.059,2.268-0.293c-0.071-0.236-0.325-0.498-0.145-0.762
	c1.459-0.566,2.958-0.963,4.527-1.121c0.671,0.068,0.51,0.955,0.795,1.447c-0.275,0.047-0.105,0.316-0.167,0.473l-0.005,0.041
	c0.194,0.088,0.457-0.021,0.683-0.01l1.022,1.293c-0.076-2.797,0.223-6.078,0.949-8.849l0.668-3.418
	c-0.506-2.668-0.498-5.474-0.684-8.224c-2.22,1.764-3.975,3.755-5.38,6.063c-0.776,0.7-0.918,1.754-1.482,2.565
	c-0.77,1.877-2.173,3.4-2.939,5.258c-0.696-0.197-0.521,0.65-0.907,0.908c-0.756,0.559-1.425,0.922-2.042,1.52
	c-0.229,0.012-0.397-0.115-0.454-0.309c0.09-0.359,0.177-0.699,0.476-0.926c-0.273-0.119-0.564,0.047-0.856,0.07
	c-1.495,0.066-3.047,0.104-4.553-0.059c-0.128-0.121-0.202-0.338-0.082-0.465l0.276-0.211c-0.432-0.162-1.31,0.07-1.461-0.486
	c0.027-0.203,0.171-0.348,0.344-0.408c0.213-0.053,0.501,0.109,0.708-0.049c-0.351-0.15-0.922,0.104-1.102-0.396
	c0.018-0.285,0.263-0.418,0.512-0.426c1.089-0.121,2.237-0.213,3.334-0.086c-0.189-0.129-0.565-0.098-0.817-0.213
	c-0.471-0.333-1.243-0.271-1.785-0.386c-0.171-0.106-0.025-0.272-0.046-0.419c1.109-0.572,2.558,0.16,3.676-0.329
	c0.186-0.759,0.85-1.247,1.015-2.009c0.375-0.176,0.38-0.671,0.705-0.937c0.868-1.843,1.661-3.738,2.587-5.552
	c0.09-1.123,0.481-2.185,1.367-2.787c0.312-0.928,0.469-1.938,0.934-2.784c0.456-0.165,0.929,0.002,1.208-0.538
	c0.259-0.543,1.186-0.067,1.287-0.817c0.189-0.944,1.544-1.194,1.734-2.139c0.457-0.475,0.211-1.87,1.257-1.667
	c0.521-0.342,0.879-0.707,1.394-1.153c0.166-1.381,0.64-2.596,1.709-3.483c1.35-0.52,2.729-0.952,4.27-0.744
	c0.448-0.414,1.129-0.57,1.727-0.716l1.656,0.265c0.232-0.34,0.28-0.85,0.806-0.923c-0.047-1.183-1.069-2.167-0.81-3.474
	c0.622-0.783,0.189-1.708,0.356-2.635c0.328-1.049,0.641-2.142,1.482-2.875c-0.07-0.092-0.2-0.047-0.298-0.082
	c0.026-0.038-0.009-0.084-0.027-0.107c0.492,0.025,0.876-0.376,1.314-0.565l-0.035-0.046c0.119-0.273,0.636,0.024,0.771-0.206
	l0.032,0.066c0.778-0.411,2.323-0.388,3.417,0.07C162.561,29.825,163.152,30.339,163.49,31.044L163.49,31.044z"/>
<path fill="#FBB034" d="M116.532,71.596c-0.212,0.365-0.458,0.723-0.677,1.092c-0.266,0.834-0.121,1.975,0.447,2.494
	c0.266,0.113,0.588,0,0.645-0.285c0,0.531,0.133,1.006,0.417,1.424c0.19,0.094,0.398,0.094,0.588-0.057
	c0.057-1.082-0.019-2.316,0.588-3.227c0.114-0.133,0.114-0.418,0.36-0.361c0.209,0.266-0.171,0.57-0.171,0.912
	c-0.057,0.854-0.512,1.727-0.151,2.6c0.17,0.17,0.455,0.076,0.607-0.096c0.247-1.139,0.55-2.277,0.911-3.377
	c0.171-0.057,0.342-0.039,0.494,0.057c-0.038,0.93-0.228,1.822-0.55,2.637c0.019,0.209,0.247,0.324,0.456,0.266
	c0.512-0.266,0.645-0.834,0.816-1.309c-0.077-1.082,0.431-1.918,0.896-2.77 M116.795,73.012c0.228-0.361,0.371-0.383,0.646-0.695
	h0.189c-0.247,0.721-0.801,1.408-0.707,2.338C116.612,74.07,116.655,73.633,116.795,73.012z M100.191,24.117l0.034,0.051
	c0.008-0.072,0.01-0.146,0.004-0.222C100.153,23.984,100.191,24.061,100.191,24.117z M122.207,71.594
	c0.22-0.404,0.431-0.813,0.565-1.252c0.607-1.613-0.076-3.416,0.588-5.009l0.512,0.228c0.19-0.133,0.607-0.057,0.588-0.398
	c-0.512-0.475-0.19-1.139-0.095-1.689c0.892-1.252,1.746-2.6,2.334-4.004c0.133-0.55,0.512-1.271,0.038-1.784
	c-0.36-3.188-0.721-6.395-1.366-9.469c-0.569-1.499-0.759-3.131-1.499-4.554c-0.114-0.816-0.594-1.402-1.182-2.162
	c-0.806-1.042-1.551-1.766-2.595-2.164c-0.133-0.019-3.188-1.385-4.934-1.955c-1.48-0.095-2.011-1.841-3.226-2.562
	c-0.664-0.399-1.765-0.911-1.86-1.765c0.19-0.133,0.114-0.398,0.133-0.588c0.057-0.285,0.152,0.019,0.323-0.057
	c0.683-1.48,2.125-2.543,2.542-4.099l0.095,0.095c0-0.152-0.038-0.323,0.038-0.456l0.133,0.683l0.057-1.005l0.038,0.189
	c0.019-0.17,0.228,0,0.133-0.228c0,0.038,0.019,0.114-0.038,0.133c-0.095-0.133-0.19-0.323-0.095-0.493
	c0.076,0.057,0.038,0.152,0.095,0.228l0.133-0.057l0.095,0.228c-0.076-0.19-0.208-0.456-0.038-0.626l0.17,0.228
	c-0.151-0.38-0.303-0.74-0.133-1.139c0.057,0.019,0.038,0.076,0.038,0.133h0.057v-0.36h-0.057c0,0.038,0.019,0.114-0.038,0.133
	c-0.189-0.399-0.095-1.139-0.36-1.423l-0.057,0.057l-0.076-0.095c0-0.038-0.019-0.114,0.038-0.133h-0.038
	c0-0.114-0.209-0.247,0-0.323c0.133,0.19,0.304,0.38,0.398,0.588c0-0.474-0.398-0.55-0.36-1.006
	c0.074,0.093,0.167-0.014,0.224,0.053l-0.774-0.963c0.133,0.019,0.228,0.095,0.322,0.19l-0.228-0.228l0.095-0.095
	c-0.493,0.114,0.038-0.531-0.455-0.493v0.095c-0.057-0.133-0.304,0.019-0.456,0.038l-0.095-0.456
	c-0.019,0.171-0.152,0.304-0.19,0.456c-0.056-0.242-0.057-0.557-0.003-0.676l-0.167,0.354c-0.095-0.171,0.152-0.475,0.133-0.55
	l-0.038-0.038l-0.206,0.497c-0.021-0.269,0.12-0.65-0.117-0.819c0,0.057,0,0.114-0.057,0.133c-0.076-0.095-0.019-0.114-0.133-0.133
	l0.057,0.057c0.019,0.057-0.057,0.076-0.095,0.133c-0.084-0.056-0.138-0.186-0.133-0.322v-0.133
	c-0.01,0.044-0.014,0.091-0.011,0.138c-0.105,0.051-0.145,0.296-0.273,0.223c-0.494-0.038-0.171-0.664-0.361-0.911
	c-0.019,0.133,0.038,0.303-0.038,0.417c-0.114-0.114-0.133-0.284-0.189-0.417c-0.019,0.076,0.038,0.189-0.038,0.228l-0.189-0.228
	c0,0.038,0.019,0.114-0.038,0.133l-0.19-0.228c0.076,0.114,0.19,0.285,0.095,0.417c-0.057-0.095-0.095-0.189-0.133-0.285
	c-0.095,0.114-0.228-0.247-0.284,0l-0.095-0.17v0.133c-0.076,0.057-0.133,0.17-0.228,0.189c-0.076-0.076-0.019-0.189-0.038-0.285
	c-0.266-0.114-0.038-0.645-0.36-0.721c0.175,0.088,0.026,0.305,0.107,0.427c-0.105-0.098-0.205,0.05-0.24-0.162l0.038,0.551
	c-0.208-0.342-0.151-0.816-0.266-1.177c-0.057-0.019-0.076,0.019-0.095,0.038c0.152,0.379,0.095,0.778,0.038,1.139h-0.038
	c-0.057-0.209-0.076-0.342,0-0.551c-0.076,0-0.19,0.038-0.228-0.038l0.038,0.456c-0.208-0.285-0.095-0.778-0.455-0.911
	c0.17,0.285,0.133,0.55,0.133,0.854c-0.19-0.19-0.133-0.494-0.304-0.626h0.038c-0.398-0.057-0.38-0.702-0.816-0.778
	c0.095,0.019,0.455,0.36,0.322,0.588h-0.228c-0.247,0.038-0.304-0.228-0.456-0.266c0,0.208,0.133,0.228,0.228,0.398
	c-0.038,0.095-0.133,0.038-0.19,0.057c0.075-0.019,0.039,0.394,0.187,0.231c-0.183,0.205,0.21,0.093-0.054,0.319
	c-0.275-0.312-0.373-0.801-0.396-1.159c0.009,0.228-0.061,0.392-0.097,0.608c-0.247-0.114-0.436-0.569-0.778-0.55
	c0.209,0.095,0.569,0.36,0.494,0.588c-0.152-0.095-0.361-0.304-0.494-0.228c0.095,0.095,0.342,0.133,0.266,0.285h-0.038
	c0.057,0.038,0.095,0.133,0.189,0.133c-0.095,0.095,0.19,0.152,0.038,0.266c-0.361-0.494-0.949-0.626-1.177-1.233
	c-0.057,0.569,0.228,0.322,0.361,0.873c-0.228,0.095-0.417-0.531-0.74-0.36c0.323,0,0.323,0.379,0.55,0.493
	c-0.038,0.057-0.114,0.076-0.171,0.095l-0.911-0.816l0.076,0.171c0,0.303,0.437,0.398,0.607,0.683
	c-0.379-0.228-1.006-0.19-1.101-0.816l-0.095,0.285c-0.095-0.228-0.38-0.379-0.55-0.379c0.133,0.114,0.398,0.228,0.379,0.379
	c-0.095,0-0.171-0.038-0.228-0.057c0.189,0.152,0.626,0.133,0.588,0.455c-0.114-0.057-0.322-0.247-0.36-0.17l0.266,0.133
	l-0.095,0.095c-0.133-0.019-0.285,0.019-0.398-0.057c-0.019-0.038,0.019-0.057,0.038-0.095c0.076-0.019,0.114,0.057,0.19,0.057
	l-0.379-0.19c-0.228,0-0.398-0.531-0.588-0.266h0.133c0.057,0.019,0.057,0.095,0.057,0.133c0.038,0,0.114-0.019,0.133,0.038
	c-0.019,0.057-0.095,0.057-0.133,0.057h0.133c0.076,0.038,0.076,0.114,0.133,0.171c-0.55,0.342-1.139-0.208-1.461-0.228
	c0.285,0.095,0.55,0.208,0.778,0.379c-0.024,0.033-0.045,0.045-0.065,0.045c-0.03-0.028-0.064-0.044-0.103-0.05
	c0.037,0.019,0.068,0.051,0.13,0.081c-0.209,0.076-0.456-0.076-0.683-0.076l0.228,0.076c-0.228,0.285-0.588,0.019-0.816,0.057
	l-0.007,0.095c0.209,0.055,0.421,0.114,0.595,0.266l-0.55-0.038c0-0.04,0.057-0.053,0.095-0.057l-0.057-0.038
	c-0.361-0.057-0.702-0.095-0.949,0.095c-0.189,0.076-0.664,0.189-0.873,0.266c0.304,0.095,0.493-0.19,0.74-0.095
	c-0.057,0.057-0.114,0.133-0.189,0.133v0.151c0.152-0.038,0.247,0.057,0.36,0.076c-0.247,0.057-0.474,0.228-0.721,0.379
	c0.494-0.171,1.12-0.341,1.689-0.152c-0.228,0.133-0.74-0.076-0.778,0.19c0.17-0.152,0.208,0.095,0.322,0.133
	c-0.095,0.152-0.285,0.19-0.36,0.228h0.456c0,0.209-0.342,0.513-0.285,0.646c0.304-0.095,0.456-0.019,0.645-0.057
	c0,0.094,0.167,0.206,0.005,0.282c0.244-0.11,0.395-0.016,0.583,0.097l-0.588,0.987c0,0.285-0.095,0.475-0.194,0.734
	c-0.07,0.663-0.63,1.169-0.356,1.922c0.152,1.082-1.12,1.556-1.556,2.41l-0.076,0.456c0.247,0.342,0.588,0.437,0.854,0.721
	c0.189,0.285,0.038,0.645-0.038,0.911c0.171,0.095,0.36,0.19,0.55,0.285c-0.038,0.228-0.569,0.057-0.456,0.456
	c0.437,0.474-0.114,1.195,0.133,1.822c0.323,1.461,2.183,0.968,3.321,1.138c0.721,0.361,0.735,1.14,1.067,2.088
	c0.228,0.569,0.432,0.758,0.489,1.403c0.475,1.082-0.474,1.897-0.417,2.96c-0.341,0.341-0.266,0.854-0.417,1.29
	c-0.057,2.41-0.36,8.16-0.266,8.331c0,0.626,0.323,1.195,0.133,1.859c-0.892-0.266-0.99-1.159-1.617-1.905
	c-2.303-2.742-3.35-4.502-5.766-7.146c-1.168-1.279-1.85-1.981-3.092-3.188l0.057-0.057c0,0-0.437-0.228-0.55-0.494
	c-0.228-0.171-0.463-0.321-0.74-0.551c-0.121-0.101-0.066-0.265-0.304-0.265c-0.133,0-0.228-0.095-0.323-0.152l0.038-0.038
	l-0.683-0.55c-0.208,0.076-0.125-0.279-0.228-0.228c-0.114,0.057-0.217,0.072-0.266-0.038c-0.152-0.341-0.513-0.36-0.74-0.588
	l0.057-0.057l-0.19-0.095c-0.797-0.797-1.732-1.489-2.732-2.732c-2.505-2.903-5.503-5.067-8.103-8.008l0.133-0.55
	c-0.607-0.683-1.044-1.689-1.917-2.145c0.114-0.55-0.588-0.417-0.456-0.987c-0.531-0.266-0.342-1.005-0.588-1.461
	c0.095-0.285-0.019-0.702,0.285-0.873l0.133,0.228c0.209,0.076,0.304-0.114,0.456-0.171c1.024,0.36,1.708-0.968,2.372-1.461
	l-0.873,0.55c0.076-0.398-0.266-0.664-0.456-0.911c0.398-0.456,1.196-0.379,1.271-1.101c-0.038-0.323-0.398-0.475-0.721-0.417
	c-0.398,0.095-0.626,0.493-0.911,0.607l0.266-0.778c-0.323,0.664-0.721,1.31-1.139,1.955c-0.36-0.417,0.304-0.645,0.285-1.043
	c0.133-0.475,0.19-1.233,0.683-1.499l-0.152-0.285c0.607-1.974,2.941-1.708,3.928-3.321c0.114-0.494-0.057-0.93,0.171-1.366
	c-0.038-0.266-0.247-0.019-0.304-0.228c0.019-0.057,0.076-0.038,0.133-0.038v-0.189c-0.114-0.759-0.968-0.475-1.461-0.494
	c-0.55,0.285-1.063,0.171-1.688,0.456l0.057,0.038c0.019,0.076-0.057,0.095-0.095,0.133c-0.057,0.019-0.076-0.019-0.095-0.038
	c-0.019-0.057,0.019-0.076,0.038-0.095c-0.93,0.304-1.878,0.645-2.732,1.043c-0.398,0.247-0.911,0.475-1.139,0.873
	c-0.55,0-0.569,0.55-1.043,0.721c-0.133,0.417-0.494,0.778-0.911,0.911c0.057,0.095-0.095,0.209-0.133,0.323
	c-0.645-0.076-0.759,1.043-1.499,0.949l0.038,0.152c-0.057,0.095-0.171,0.133-0.266,0.171c-0.531-0.626-0.873,0.133-1.366,0.285
	c-0.019,0.133-0.266,0.398-0.456,0.266c-0.36,0.493-1.043,0.626-1.366,1.138c-0.247-0.095-0.171,0.285-0.456,0.228
	c-0.019,0.057,0.038,0.152-0.057,0.189c-0.398,0.417-0.93,1.158-0.588,1.898c0.512,0.076,0.512,0.778,1.006,0.74
	c0.607,0.968,1.328,1.765,2.239,2.505c0.36,0.171,0.55,0.797,1.082,0.55l1.195,1.139c-0.019,0.247,0.171,0.493,0.36,0.588
	c0.588,0.038,0.323,0.797,0.854,0.854c0.437,0.55,0.569,1.291,1.139,1.689c0.133,0.379,0.398,0.702,0.55,1.101
	c0.133,0.095,0.304,0.19,0.456,0.095l1.784,2.903c1.537,2.581,2.732,5.352,4.915,7.609c1.177,0.588,2.068,1.897,3.283,2.467
	c0.513,0.342,1.025,0.665,1.594,0.854c0.55,0.569,1.139,1.101,1.499,1.727c1.12,2.562,1.813,4.412,2.704,7.049
	c0.854,2.011,1.605,4.168,2.946,6.68c1.593,2.984,2.737,4.942,4.749,7.257c0.247,0.474,0.534,0.656,0.534,1.148
	c0,0.412-1.242,2.622-2.323,4.848h-0.001c-0.314,0.646-0.615,1.295-0.867,1.9c-1.284,3.08-2.731,7.607-2.864,8.063
	c-0.171,0.627-0.209,1.291-0.513,1.859c-0.114,0.172,0.057,0.475-0.17,0.59c-0.228,1.668-0.461,1.539-0.48,3.303
	c-0.228,0.322-0.506,2.465-0.488,2.844c0.607,1.404-0.474,2.998,0.607,4.195c1.177,1.631,2.334,3.586,4.004,4.914
	c1.708,3.188,4.535,6.053,7.154,8.842l-0.152,0.457c0.38,0.379,0.55,0.91,0.968,1.176c-0.247,0.342,0.285,0.342,0.323,0.607
	c-0.095,0.303,0.266,0.568,0.266,0.91l-0.588,0.854c-0.664,0.305-1.309,0.189-2.049,0.285c-0.208,0.076-0.626-0.02-0.55,0.361
	c0.095,0.113,0.247,0.17,0.323,0.227c1.385,0.152-0.475,0.342-0.323,0.721c0.038,0.191-0.228,0.209-0.322,0.191
	c-0.892,0.605-2.258,0.568-3.283,0.359c-1.005-0.189-1.67,0.551-2.182,1.234c-0.095,0.512-0.266,1.006,0,1.498
	c0.057,0.133,0.266,0.02,0.228,0.229c0.171,0.02,0.304,0.418,0.513,0.266c0.417,0.607,1.309,0.684,1.955,1.006
	c2.03,0.266,4.042,1.271,6.091,0.359l1.822,0.191c0.968,1.137,2.505,0.834,3.871,0.947c0.968,0.133,1.594-0.645,2.239-1.213
	c0.437-0.324,0.076-1.121,0.323-1.52c0.123-0.209-0.224-0.42-0.054-0.629c-0.043,0.012-0.098-0.01-0.136,0.004
	c-0.114-0.475-0.114-1.102-0.171-1.652c-0.133-0.568-0.512-1.08-0.455-1.67c-0.342-0.379-0.323-1.422-1.006-1.139
	c-0.247-1.555-1.48-2.75-1.594-4.287c-0.455-0.039-0.266-0.57-0.512-0.816c0.057-0.398-0.247-0.684-0.398-0.969
	c-0.247,0.133-0.398-0.057-0.588-0.133c-1.651-3.453-2.429-7.723-5.92-9.961l0.038-0.057l-0.456-0.324
	c-0.304-0.15-0.531-0.34-0.683-0.531c-0.057-0.018-0.152,0.02-0.19-0.057l0.057-0.037l-0.74-0.645
	c-0.93-0.816-1.385-2.051-1.043-3.189c0.228-0.891,1.932-3.275,2.387-4.074c2.106-3.264,3.287-4.787,4.995-8.164
	c0.436-0.836,0.849-1.271,1.366-2.334c0.789-1.184,2.531-4.34,4.039-4.99c0.015-0.008,0.03-0.014,0.045-0.02
	c0.588-0.475,1.053-0.779,1.515-1.139c0.512-0.398,0.796-1.119,1.232-1.594c0.247-0.475,0.228-1.063,0.55-1.5
	c0.057-0.588,0.456-1.023,0.323-1.688c0.208-0.607-0.038-1.366,0.038-2.087c0.114-0.247,0.038-0.474,0-0.74
	c0.38-1.271,1.271-2.334,1.404-3.719c1.158-1.537,1.442-3.416,2.012-5.2c0.588-0.266,0.189-1.024,0.493-1.461
	c0.361,0.133,0.74,0.341,0.778,0.778l0.588,6.281l-0.304,0.228c-0.095,0.36,0.247,0.398,0.456,0.55
	c0.512,1.025-0.835,1.385-1.233,2.144c-0.285,0.911-0.645,2.031-0.133,2.96c0.987,0.152,0.493-1.252,0.949-1.784
	c0.114-0.171,0.114-0.55,0.361-0.55c-0.019,0.285-0.114,0.55-0.266,0.778c0.038,0.892,0.095,1.936,0.133,2.827
	c0.095,1.557-1.765,1.33-2.733,1.785l-0.721,0.854c-0.834,0.568-0.986,1.518-1.878,2.049c0.014,0.098,0.048,0.176,0.111,0.248h0.002
	c0.022,0.026,0.048,0.05,0.077,0.074c0.233,0.117,0.451-0.014,0.681-0.074c0.032-0.008,0.064-0.016,0.097-0.02
	c0.683-0.342,1.025-0.969,1.727-1.311c-0.062,0.471-0.263,0.904-0.51,1.33 M100.134,19.848l-0.304-0.057
	c0.106,0.056,0.223,0.092,0.361,0.151h0.088l-0.107-0.028C100.154,19.893,100.134,19.875,100.134,19.848z"/>
</svg>
